<svg width="12" height="16" viewBox="0 0 12 16" xmlns="http://www.w3.org/2000/svg"><path clip-rule="evenodd" d="M0.666668 1.89165C0.666668 1.21512 1.2151 0.666687 1.89163 0.666687H10.1084C10.7849 0.666687 11.3333 1.21512 11.3333 1.89165C11.3333 3.84529 10.5573 5.71891 9.17582 7.10034L8.36303 7.91313C8.32032 7.95584 8.29701 7.97922 8.28037 7.99673C8.27923 7.99792 8.2782 7.99902 8.27726 8.00002C8.2782 8.00102 8.27923 8.00212 8.28037 8.00331C8.29701 8.02082 8.32032 8.0442 8.36303 8.08691L9.17582 8.8997C10.5573 10.2811 11.3333 12.1548 11.3333 14.1084C11.3333 14.7849 10.7849 15.3334 10.1084 15.3334H1.89163C1.2151 15.3334 0.666668 14.7849 0.666668 14.1084C0.666668 12.1548 1.44275 10.2811 2.82418 8.8997L3.63697 8.08691L4.10837 8.55831L3.63697 8.08691C3.67968 8.0442 3.70299 8.02082 3.71963 8.00331C3.72077 8.00212 3.7218 8.00102 3.72275 8.00002C3.7218 7.99902 3.72077 7.99792 3.71963 7.99673C3.70299 7.97922 3.67968 7.95584 3.63697 7.91313L2.82418 7.10034C1.44275 5.71891 0.666668 3.84529 0.666668 1.89165ZM2.00097 2.00002C2.02898 3.56081 2.66117 5.05171 3.76699 6.15753L4.57978 6.97032C4.58551 6.97605 4.5914 6.98193 4.59742 6.98793C4.65875 7.04905 4.73357 7.12361 4.79282 7.20308L4.27588 7.58847L4.79282 7.20308C5.14532 7.67591 5.14532 8.32413 4.79282 8.79696L4.27588 8.41157L4.79282 8.79696C4.73356 8.87643 4.65875 8.95099 4.59742 9.01211C4.5914 9.01812 4.58551 9.02399 4.57978 9.02972L3.76699 9.84251C2.66117 10.9483 2.02898 12.4392 2.00097 14H9.99903C9.97102 12.4392 9.33883 10.9483 8.23301 9.84251L7.42022 9.02972C7.41449 9.02398 7.4086 9.01811 7.40258 9.01211C7.34126 8.951 7.26644 8.87643 7.20719 8.79696C6.85469 8.32413 6.85469 7.67591 7.20718 7.20309C7.26644 7.12361 7.34126 7.04904 7.40258 6.98793C7.4086 6.98193 7.41449 6.97605 7.42022 6.97032L8.23302 6.15753C9.33883 5.05171 9.97102 3.56081 9.99903 2.00002H2.00097Z"/></svg>