<svg width="16" height="16" viewBox="0 0 16 16" xmlns="http://www.w3.org/2000/svg"><path d="M7.63039 1.19367H9.07533C9.35805 1.19361 9.6328 1.19356 9.85941 1.22403C10.1149 1.25837 10.4064 1.34205 10.6485 1.5842C10.8907 1.82634 10.9744 2.11786 11.0087 2.37333C11.0392 2.59993 11.0391 2.87467 11.0391 3.15737L11.0391 3.72495C11.1998 3.72789 11.352 3.73521 11.487 3.75336C11.7425 3.78771 12.034 3.87139 12.2761 4.11354C12.5183 4.35568 12.602 4.6472 12.6363 4.90267C12.6668 5.12926 12.6667 5.404 12.6667 5.6867L12.6667 7.44191C12.6667 7.45257 12.6664 7.46316 12.6659 7.47369L13.4461 7.73376C13.6987 7.81789 13.9458 7.9002 14.142 7.99544C14.3639 8.10319 14.6029 8.26474 14.7579 8.55152C14.9129 8.83831 14.9171 9.12678 14.8857 9.37148C14.8579 9.58774 14.7914 9.83954 14.7234 10.0969L14.0099 12.8005L14.121 12.7511C14.4575 12.6016 14.8514 12.7532 15.0009 13.0896C15.1504 13.4261 14.9989 13.8201 14.6624 13.9696L13.1621 14.6362C12.0346 15.1373 10.7476 15.1373 9.62004 14.6362C8.8372 14.2884 7.94366 14.2884 7.16082 14.6362C6.03329 15.1373 4.7463 15.1373 3.61876 14.6362L2.11844 13.9696C1.78197 13.8201 1.63042 13.4261 1.77992 13.0896C1.92943 12.7532 2.3234 12.6016 2.65986 12.7511L2.76807 12.7992L2.05491 10.0969C1.98693 9.83956 1.92042 9.58775 1.89263 9.37148C1.86119 9.12678 1.86539 8.83831 2.02039 8.55152C2.1754 8.26474 2.41443 8.10319 2.63636 7.99544C2.83252 7.9002 3.07961 7.81789 3.33219 7.73376L4.00343 7.51001C4.00116 7.48762 4 7.4649 4 7.44191L3.99999 5.68674C3.99994 5.40403 3.99989 5.12928 4.03035 4.90267C4.0647 4.6472 4.14838 4.35568 4.39052 4.11354C4.63267 3.87139 4.92418 3.78771 5.17965 3.75336C5.3256 3.73374 5.49152 3.72678 5.66667 3.72432L5.66666 3.1574C5.66661 2.87469 5.66655 2.59994 5.69702 2.37333C5.73137 2.11786 5.81505 1.82634 6.05719 1.5842C6.29933 1.34205 6.59085 1.25837 6.84632 1.22403C7.07293 1.19356 7.34768 1.19361 7.63039 1.19367ZM4.32846 13.4866C5.0693 13.7639 5.89212 13.7409 6.6194 13.4178C6.9746 13.2599 7.34562 13.1518 7.72249 13.0934V7.67579L3.78675 8.9877C3.48827 9.08719 3.32659 9.1425 3.21869 9.19488L3.21451 9.19693L3.21509 9.20155C3.23038 9.32051 3.27269 9.48607 3.35297 9.79027L4.32846 13.4866ZM9.05583 13.093C9.43357 13.1513 9.80546 13.2596 10.1615 13.4178C10.8878 13.7405 11.7095 13.7638 12.4496 13.4876L13.4253 9.79027C13.5056 9.48607 13.5479 9.32051 13.5632 9.20155L13.5638 9.19693L13.5596 9.19488C13.4517 9.1425 13.29 9.08719 12.9916 8.9877L9.05583 7.67579V13.093ZM9.70573 3.19367C9.70573 2.86056 9.70431 2.67779 9.68726 2.55099L9.6866 2.54614L9.68174 2.54547C9.55495 2.52842 9.37218 2.52701 9.03906 2.52701H7.66667C7.33355 2.52701 7.15078 2.52842 7.02398 2.54547L7.01913 2.54614L7.01846 2.55099C7.00142 2.67779 7 2.86056 7 3.19367V3.72301H9.70573V3.19367ZM6 5.05634C5.66688 5.05634 5.48411 5.05776 5.35732 5.07481L5.35246 5.07547L5.3518 5.08033C5.33475 5.20712 5.33333 5.3899 5.33333 5.72301V7.06671L8.17834 6.11838C8.31518 6.07276 8.46313 6.07276 8.59998 6.11838L11.3333 7.0295V5.72301C11.3333 5.3899 11.3319 5.20712 11.3149 5.08033L11.3142 5.07547L11.3093 5.07481C11.1826 5.05776 10.9998 5.05634 10.6667 5.05634H6Z"/></svg>